<svg width="66" height="66" viewBox="0 0 66 66" fill="none" xmlns="http://www.w3.org/2000/svg">
<path d="M12 0C5.38453 0 0 5.38453 0 12V54C0 60.6155 5.38453 66 12 66H54C60.6155 66 66 60.6155 66 54V12C66 5.38453 60.6155 0 54 0H12ZM12 2H17V9.5C16.9991 9.56626 17.0113 9.63204 17.036 9.69352C17.0607 9.75501 17.0974 9.81097 17.1439 9.85815C17.1904 9.90534 17.2459 9.9428 17.307 9.96838C17.3681 9.99395 17.4337 10.0071 17.5 10.0071C17.5663 10.0071 17.6319 9.99395 17.693 9.96838C17.7541 9.9428 17.8096 9.90534 17.8561 9.85815C17.9026 9.81097 17.9393 9.75501 17.964 9.69352C17.9887 9.63204 18.0009 9.56626 18 9.5V2H54C59.5345 2 64 6.46547 64 12V21H53.5C53.4337 20.9991 53.368 21.0113 53.3065 21.036C53.245 21.0607 53.189 21.0974 53.1418 21.1439C53.0947 21.1904 53.0572 21.2459 53.0316 21.307C53.006 21.3681 52.9929 21.4337 52.9929 21.5C52.9929 21.5663 53.006 21.6319 53.0316 21.693C53.0572 21.7541 53.0947 21.8096 53.1418 21.8561C53.189 21.9026 53.245 21.9393 53.3065 21.964C53.368 21.9887 53.4337 22.0009 53.5 22H64V54C64 59.5345 59.5345 64 54 64H12C6.46547 64 2 59.5345 2 54V22H5.05078C5.28419 23.1374 6.29623 24 7.5 24H15.5C16.7038 24 17.7158 23.1374 17.9492 22H21.3848C18.674 24.8618 17 28.7158 17 32.9648C17 39.131 20.4991 44.487 25.623 47.1445C27.821 48.2843 30.3197 48.9277 32.9648 48.9277C41.7751 48.9277 48.9277 41.7751 48.9277 32.9648C48.9277 28.7161 47.2534 24.8619 44.543 22H50.5C50.5663 22.0009 50.632 21.9887 50.6935 21.964C50.755 21.9393 50.811 21.9026 50.8582 21.8561C50.9053 21.8096 50.9428 21.7541 50.9684 21.693C50.994 21.6319 51.0071 21.5663 51.0071 21.5C51.0071 21.4337 50.994 21.3681 50.9684 21.307C50.9428 21.2459 50.9053 21.1904 50.8582 21.1439C50.811 21.0974 50.755 21.0607 50.6935 21.036C50.632 21.0113 50.5663 20.9991 50.5 21H43.5039C40.6903 18.5186 37.0078 17 32.9648 17C28.9221 17 25.2398 18.5189 22.4258 21H18V17.5C18.001 17.433 17.9886 17.3665 17.9635 17.3044C17.9383 17.2424 17.901 17.186 17.8536 17.1386C17.8062 17.0912 17.7498 17.0539 17.6878 17.0287C17.6257 17.0036 17.5592 16.9911 17.4922 16.9922C17.4265 16.9932 17.3617 17.0072 17.3014 17.0332C17.2412 17.0593 17.1866 17.097 17.1409 17.1442C17.0952 17.1913 17.0592 17.247 17.0351 17.3081C17.0109 17.3691 16.999 17.4343 17 17.5V19.5156C16.5803 19.1968 16.0646 19 15.5 19H15V4.5C15.001 4.43302 14.9886 4.36652 14.9635 4.30444C14.9383 4.24235 14.901 4.18595 14.8536 4.13859C14.8062 4.09122 14.7498 4.05386 14.6878 4.02871C14.6257 4.00356 14.5592 3.99114 14.4922 3.99219C14.4265 3.99321 14.3617 4.00716 14.3014 4.03324C14.2412 4.05931 14.1866 4.097 14.1409 4.14416C14.0952 4.19131 14.0592 4.24701 14.0351 4.30806C14.0109 4.36912 13.999 4.43434 14 4.5V19H12V11.5C12.001 11.433 11.9886 11.3665 11.9635 11.3044C11.9383 11.2424 11.901 11.186 11.8536 11.1386C11.8062 11.0912 11.7498 11.0539 11.6878 11.0287C11.6257 11.0036 11.5592 10.9911 11.4922 10.9922C11.4265 10.9932 11.3617 11.0072 11.3014 11.0332C11.2412 11.0593 11.1866 11.097 11.1409 11.1442C11.0952 11.1913 11.0592 11.247 11.0351 11.3081C11.0109 11.3691 10.999 11.4343 11 11.5V19H9V17.5C9.00105 17.433 8.98863 17.3665 8.96348 17.3044C8.93833 17.2424 8.90096 17.186 8.8536 17.1386C8.80623 17.0912 8.74984 17.0539 8.68775 17.0287C8.62567 17.0036 8.55916 16.9911 8.49219 16.9922C8.42653 16.9932 8.36171 17.0072 8.30144 17.0332C8.24117 17.0593 8.18662 17.097 8.14092 17.1442C8.09521 17.1913 8.05925 17.247 8.03507 17.3081C8.01089 17.3691 7.99897 17.4343 8 17.5V19H7.5C6.29623 19 5.28419 19.8626 5.05078 21H2V12C2 9.19584 3.1491 6.66899 5 4.85547V16.5C4.99906 16.5663 5.0113 16.632 5.03601 16.6935C5.06072 16.755 5.0974 16.811 5.14392 16.8582C5.19044 16.9053 5.24588 16.9428 5.30701 16.9684C5.36814 16.994 5.43374 17.0071 5.5 17.0071C5.56626 17.0071 5.63186 16.994 5.69299 16.9684C5.75412 16.9428 5.80956 16.9053 5.85608 16.8582C5.9026 16.811 5.93928 16.755 5.96399 16.6935C5.9887 16.632 6.00094 16.5663 6 16.5V4.00586C6.61643 3.54295 7.28406 3.14592 8 2.83398V14.5C7.99906 14.5663 8.0113 14.632 8.03601 14.6935C8.06072 14.755 8.0974 14.811 8.14392 14.8582C8.19044 14.9053 8.24588 14.9428 8.30701 14.9684C8.36814 14.994 8.43374 15.0071 8.5 15.0071C8.56626 15.0071 8.63186 14.994 8.69299 14.9684C8.75412 14.9428 8.80956 14.9053 8.85608 14.8582C8.9026 14.811 8.93928 14.755 8.96399 14.6935C8.9887 14.632 9.00094 14.5663 9 14.5V2.45703C9.64066 2.25671 10.3105 2.11696 11 2.04883V8.5C10.9991 8.56626 11.0113 8.63204 11.036 8.69352C11.0607 8.75501 11.0974 8.81097 11.1439 8.85815C11.1904 8.90534 11.2459 8.9428 11.307 8.96838C11.3681 8.99395 11.4337 9.00712 11.5 9.00712C11.5663 9.00712 11.6319 8.99395 11.693 8.96838C11.7541 8.9428 11.8096 8.90534 11.8561 8.85815C11.9026 8.81097 11.9393 8.75501 11.964 8.69352C11.9887 8.63204 12.0009 8.56626 12 8.5V2ZM49.5 7C49.3674 7.00001 49.2402 7.0527 49.1465 7.14646C49.0527 7.24023 49 7.3674 49 7.5V15.5C49 15.6326 49.0527 15.7598 49.1465 15.8535C49.2402 15.9473 49.3674 16 49.5 16H57.5C57.6326 16 57.7598 15.9473 57.8535 15.8535C57.9473 15.7598 58 15.6326 58 15.5V7.5C58 7.3674 57.9473 7.24023 57.8535 7.14646C57.7598 7.0527 57.6326 7.00001 57.5 7H49.5ZM50 8H57V15H50V8ZM17.4922 11.9922C17.4265 11.9932 17.3617 12.0072 17.3014 12.0332C17.2412 12.0593 17.1866 12.097 17.1409 12.1442C17.0952 12.1913 17.0592 12.247 17.0351 12.3081C17.0109 12.3691 16.999 12.4343 17 12.5V14.5C16.9991 14.5663 17.0113 14.632 17.036 14.6935C17.0607 14.755 17.0974 14.811 17.1439 14.8582C17.1904 14.9053 17.2459 14.9428 17.307 14.9684C17.3681 14.994 17.4337 15.0071 17.5 15.0071C17.5663 15.0071 17.6319 14.994 17.693 14.9684C17.7541 14.9428 17.8096 14.9053 17.8561 14.8582C17.9026 14.811 17.9393 14.755 17.964 14.6935C17.9887 14.632 18.0009 14.5663 18 14.5V12.5C18.001 12.433 17.9886 12.3665 17.9635 12.3044C17.9383 12.2424 17.901 12.186 17.8536 12.1386C17.8062 12.0912 17.7498 12.0539 17.6878 12.0287C17.6257 12.0036 17.5592 11.9911 17.4922 11.9922V11.9922ZM32.9648 18C41.2356 18 47.9277 24.6951 47.9277 32.9648C47.9277 41.2346 41.2346 47.9277 32.9648 47.9277C30.482 47.9277 28.144 47.3241 26.084 46.2559C21.282 43.7654 18 38.7527 18 32.9648C18 24.694 24.694 18 32.9648 18ZM7.5 20H8.41992C8.4736 20.0088 8.52835 20.0088 8.58203 20H11.4199C11.4736 20.0088 11.5284 20.0088 11.582 20H14.4199C14.4736 20.0088 14.5284 20.0088 14.582 20H15.5C16.3183 20 16.9702 20.6397 16.9961 21.4512C16.9929 21.4836 16.9929 21.5164 16.9961 21.5488C16.9702 22.3603 16.3183 23 15.5 23H7.5C6.68169 23 6.02978 22.3603 6.00391 21.5488C6.00709 21.5164 6.00709 21.4836 6.00391 21.4512C6.02978 20.6397 6.68169 20 7.5 20ZM33 22C26.9308 22 22 26.9308 22 33C22 39.0692 26.9308 44 33 44C33.0663 44.0009 33.132 43.9887 33.1935 43.964C33.255 43.9393 33.311 43.9026 33.3582 43.8561C33.4053 43.8096 33.4428 43.7541 33.4684 43.693C33.494 43.6319 33.5071 43.5663 33.5071 43.5C33.5071 43.4337 33.494 43.3681 33.4684 43.307C33.4428 43.2459 33.4053 43.1904 33.3582 43.1439C33.311 43.0974 33.255 43.0607 33.1935 43.036C33.132 43.0113 33.0663 42.9991 33 43C27.4712 43 23 38.5288 23 33C23 31.3578 23.4021 29.8134 24.1016 28.4473C24.2426 29.7993 25.0577 30.9567 26.2129 31.5566C26.7585 31.8392 27.379 32 28.0352 32C30.2184 32 32 30.2184 32 28.0352C32 25.9857 30.4242 24.3112 28.4258 24.1113C29.797 23.4051 31.3494 23 33 23C37.3542 23 41.0511 25.7785 42.4277 29.6543C42.4482 29.7182 42.4812 29.7773 42.525 29.8281C42.5687 29.8789 42.6223 29.9205 42.6824 29.9502C42.7425 29.9799 42.808 29.9972 42.8749 30.0011C42.9419 30.005 43.0089 29.9954 43.0721 29.9729C43.1352 29.9504 43.1932 29.9153 43.2426 29.8699C43.2919 29.8245 43.3316 29.7697 43.3594 29.7086C43.3871 29.6475 43.4022 29.5815 43.4039 29.5145C43.4056 29.4474 43.3938 29.3807 43.3691 29.3184C41.8538 25.0521 37.7798 22 33 22ZM28.0352 25.0723C29.6779 25.0723 31 26.3924 31 28.0352C31 29.6779 29.6779 31 28.0352 31C27.5413 31 27.0823 30.8814 26.6738 30.6699C25.7235 30.1764 25.0723 29.185 25.0723 28.0352C25.0723 26.3924 26.3924 25.0723 28.0352 25.0723ZM43.3633 30.9941C43.2935 30.9982 43.2253 31.0168 43.1632 31.0488C43.1011 31.0808 43.0463 31.1255 43.0025 31.18C42.9587 31.2345 42.9268 31.2975 42.9089 31.3651C42.891 31.4327 42.8874 31.5032 42.8984 31.5723C42.9432 31.886 42.973 32.2033 42.9883 32.5254C42.9948 32.658 43.0537 32.7825 43.152 32.8717C43.2504 32.9608 43.3801 33.0073 43.5127 33.0008C43.6453 32.9943 43.7698 32.9355 43.859 32.8372C43.9482 32.7389 43.9947 32.6091 43.9883 32.4766C43.9715 32.1226 43.9379 31.774 43.8887 31.4297C43.8726 31.304 43.8093 31.1892 43.7118 31.1084C43.6143 31.0275 43.4897 30.9867 43.3633 30.9941V30.9941Z" fill="#3EB0AA"/>
</svg>
