<svg width="473" height="179" viewBox="0 0 473 179" fill="none" xmlns="http://www.w3.org/2000/svg">
<path d="M57.5263 68.5023H61.2126L56.2625 93.2055H4.33945V89.0883H11.5012L12.3438 88.2648V19.3312L11.5012 18.5078H4.33945V14.3906H32.8813V18.5078H25.7195L24.9823 19.3312V88.2648L25.7195 89.0883H35.1984C40.6048 89.0883 45.1336 87.363 48.7847 83.9124C52.5061 80.3834 55.4199 75.2467 57.5263 68.5023ZM95.408 89.0883C99.0591 89.0883 102.219 88.1472 104.887 86.2651C107.625 84.3829 109.942 82.3047 111.838 80.0304L114.682 82.736C113.207 84.6966 111.522 86.5788 109.626 88.3825C107.73 90.1862 105.449 91.637 102.78 92.7349C100.112 93.8329 96.8122 94.3818 92.8803 94.3818C88.3164 94.3818 84.1036 93.2447 80.2418 90.9704C76.38 88.6962 73.2555 85.4024 70.8683 81.0892C68.5512 76.7759 67.3927 71.6 67.3927 65.5614C67.3927 59.6013 68.5512 54.4646 70.8683 50.1514C73.2555 45.8381 76.38 42.5444 80.2418 40.2701C84.1036 37.9958 88.3164 36.8587 92.8803 36.8587C97.3037 36.8587 101.165 37.839 104.466 39.7996C107.836 41.6817 110.469 44.6226 112.365 48.6221C114.26 52.5433 115.208 57.6015 115.208 63.7969H78.0301V59.6797H102.148C101.868 53.4843 100.955 48.8182 99.4101 45.6813C97.8654 42.5444 95.408 40.9759 92.0377 40.9759C89.2994 40.9759 87.0525 41.9954 85.2972 44.0344C83.5418 46.0734 82.2429 48.975 81.4003 52.7393C80.5578 56.4252 80.1365 60.6992 80.1365 65.5614C80.1365 70.4237 80.7684 74.6193 82.0322 78.1483C83.3663 81.5989 85.1568 84.3045 87.4036 86.2651C89.7206 88.1472 92.3888 89.0883 95.408 89.0883ZM148.832 36.8587C153.536 36.8587 157.784 37.9958 161.576 40.2701C165.438 42.5444 168.492 45.8381 170.739 50.1514C173.056 54.4646 174.214 59.6013 174.214 65.5614C174.214 71.6 173.056 76.7759 170.739 81.0892C168.492 85.4024 165.438 88.6962 161.576 90.9704C157.784 93.2447 153.536 94.3818 148.832 94.3818C144.128 94.3818 139.844 93.2447 135.983 90.9704C132.121 88.6962 129.032 85.4024 126.714 81.0892C124.468 76.7759 123.344 71.6 123.344 65.5614C123.344 59.6013 124.468 54.4646 126.714 50.1514C129.032 45.8381 132.121 42.5444 135.983 40.2701C139.844 37.9958 144.128 36.8587 148.832 36.8587ZM149.359 90.2646C152.378 90.2646 154.73 89.1667 156.415 86.9709C158.17 84.775 159.434 81.8734 160.207 78.2659C160.979 74.6585 161.365 70.7373 161.365 66.5025C161.365 61.1698 160.768 56.6212 159.575 52.857C158.381 49.0142 156.766 46.0734 154.73 44.0344C152.764 41.9954 150.622 40.9759 148.305 40.9759C145.356 40.9759 142.969 42.0738 141.143 44.2697C139.388 46.3871 138.124 49.2495 137.352 52.857C136.58 56.4644 136.193 60.4248 136.193 64.738C136.193 69.9923 136.79 74.5409 137.984 78.3836C139.248 82.2263 140.863 85.1671 142.829 87.2061C144.795 89.2451 146.971 90.2646 149.359 90.2646ZM235.441 88.2648L236.283 89.0883H242.918V93.2055H216.483V89.0883H223.118L223.855 88.2648V53.9157C223.855 50.1514 223.259 47.3281 222.065 45.446C220.941 43.5639 219.046 42.6228 216.378 42.6228C213.78 42.6228 211.287 43.6423 208.9 45.6813C206.583 47.7203 204.125 51.2493 201.527 56.2683V88.2648L202.265 89.0883H209.005V93.2055H182.464V89.0883H189.205L189.942 88.2648V42.9757L189.205 42.1522H182.464V38.0351C184.29 38.0351 186.221 38.0351 188.257 38.0351C190.293 37.9566 192.294 37.839 194.26 37.6821C196.296 37.5253 198.227 37.3292 200.053 37.094L200.79 38.0351V48.6221H201.527C203.353 45.1715 205.74 42.3483 208.689 40.1525C211.638 37.9566 215.465 36.8587 220.169 36.8587C223.89 36.8587 226.875 37.5645 229.121 38.9761C231.368 40.3093 232.983 42.1522 233.966 44.5049C234.949 46.7792 235.441 49.3279 235.441 52.1511V88.2648ZM293.001 94.3818C290.614 94.3818 288.543 93.8721 286.787 92.8526C285.102 91.8331 283.838 90.1862 282.996 87.9119V57.68C282.996 52.8177 282.223 48.975 280.679 46.1518C279.204 43.2502 276.396 41.7993 272.253 41.7993C270.428 41.7993 268.707 42.0346 267.092 42.5051C265.477 42.8973 263.898 43.6423 262.353 44.7402C263.476 45.446 264.319 46.3871 264.881 47.5634C265.442 48.6613 265.723 49.8769 265.723 51.2101C265.723 53.2491 265.126 54.9352 263.933 56.2683C262.739 57.5231 261.265 58.1505 259.509 58.1505C257.754 58.1505 256.279 57.4839 255.086 56.1507C253.892 54.7391 253.295 52.8962 253.295 50.6219C253.295 48.3476 253.927 46.3479 255.191 44.6226C256.525 42.8973 258.245 41.4857 260.352 40.3877C262.528 39.2114 264.916 38.3487 267.514 37.7998C270.112 37.1724 272.639 36.8587 275.097 36.8587C278.537 36.8587 281.732 37.4077 284.681 38.5056C287.63 39.6035 290.017 41.5249 291.843 44.2697C293.668 47.0145 294.581 50.8964 294.581 55.9154V82.736C294.581 83.834 294.792 84.8927 295.213 85.9122C295.704 86.9317 296.582 87.4414 297.846 87.4414C298.759 87.4414 299.566 87.1277 300.268 86.5003C300.97 85.7945 301.638 85.0103 302.269 84.1476L305.113 86.8532C304.271 88.1864 303.323 89.4412 302.269 90.6175C301.216 91.7154 299.952 92.6173 298.478 93.3231C297.003 94.0289 295.178 94.3818 293.001 94.3818ZM268.251 94.3818C262.704 94.3818 258.281 92.8918 254.98 89.9117C251.751 86.8532 250.136 83.0105 250.136 78.3836C250.136 73.8351 251.751 70.0708 254.98 67.0907C258.21 64.0322 262.634 62.503 268.251 62.503C271.902 62.503 274.921 63.1695 277.308 64.5027C279.696 65.7575 281.592 67.2475 282.996 68.9728V74.384C281.1 72.1097 279.099 70.4629 276.992 69.4434C274.956 68.4239 272.99 67.9141 271.095 67.9141C268.146 67.9141 265.829 68.8944 264.143 70.855C262.528 72.7371 261.721 75.2467 261.721 78.3836C261.721 81.5205 262.528 84.0692 264.143 86.0298C265.829 87.9904 268.146 88.9706 271.095 88.9706C272.99 88.9706 274.956 88.4609 276.992 87.4414C279.099 86.4219 281.1 84.7358 282.996 82.3831V87.9119C281.592 89.5588 279.696 91.0488 277.308 92.382C274.921 93.7152 271.902 94.3818 268.251 94.3818ZM328.063 50.6219C329.818 46.8576 332.1 43.6031 334.909 40.8583C337.717 38.1135 341.017 36.7803 344.809 36.8587C346.775 36.8587 348.355 37.29 349.548 38.1527C350.812 38.9369 351.725 39.9956 352.286 41.3288C352.848 42.662 353.129 44.0736 353.129 45.5636C353.129 47.9163 352.427 49.9161 351.023 51.563C349.689 53.1314 347.898 53.9157 345.651 53.9157C343.545 53.9157 341.754 53.1314 340.28 51.563C338.805 49.9161 338.068 47.9163 338.068 45.5636C338.068 44.4657 338.314 43.3286 338.805 42.1522C339.367 40.9759 339.894 40.1133 340.385 39.5643L340.28 43.211C338.946 43.6815 337.647 44.4657 336.383 45.5636C335.189 46.5831 333.926 48.1516 332.592 50.269C331.257 52.3864 329.748 55.4449 328.063 59.4445V50.6219ZM328.063 88.2648L328.8 89.0883H339.227V93.2055H309V89.0883H315.635L316.477 88.2648V42.9757L315.635 42.1522H309V38.0351C310.825 38.0351 312.721 38.0351 314.687 38.0351C316.723 37.9566 318.724 37.839 320.69 37.6821C322.726 37.5253 324.657 37.3292 326.483 37.094L327.22 38.0351V50.6219H328.063V88.2648ZM407.16 88.2648L408.003 89.0883H414.638V93.2055C412.812 93.2055 410.846 93.2055 408.74 93.2055C406.633 93.2839 404.492 93.3623 402.315 93.4407C400.209 93.5976 398.243 93.7936 396.417 94.0289L395.575 93.2055V83.4418C394.241 86.1866 392.169 88.6962 389.361 90.9704C386.622 93.2447 383.287 94.3818 379.355 94.3818C375.002 94.3818 371.105 93.2447 367.665 90.9704C364.294 88.6177 361.661 85.324 359.766 81.0892C357.87 76.7759 356.922 71.6784 356.922 65.7967C356.922 59.9934 357.87 54.9352 359.766 50.6219C361.661 46.2302 364.294 42.8581 367.665 40.5054C371.105 38.0743 375.002 36.8587 379.355 36.8587C383.568 36.8587 386.974 37.9174 389.571 40.0348C392.24 42.0738 394.241 44.6226 395.575 47.6811V12.2732L394.837 11.4497H388.202V7.33253C390.028 7.33253 391.994 7.33253 394.1 7.33253C396.277 7.25411 398.418 7.17569 400.525 7.09726C402.631 6.94042 404.597 6.74436 406.423 6.50909L407.16 7.33253V88.2648ZM395.575 74.9722V56.2683C393.609 51.2493 391.397 47.7203 388.939 45.6813C386.552 43.6423 384.165 42.6228 381.778 42.6228C378.267 42.6228 375.388 44.3481 373.141 47.7987C370.895 51.1709 369.771 56.6997 369.771 64.3851C369.771 72.0705 370.895 78.0307 373.141 82.2655C375.388 86.4219 378.267 88.5001 381.778 88.5001C384.165 88.5001 386.552 87.5198 388.939 85.5593C391.397 83.5203 393.609 79.9912 395.575 74.9722ZM447.618 36.8587C452.322 36.8587 456.57 37.9958 460.361 40.2701C464.223 42.5444 467.278 45.8381 469.524 50.1514C471.841 54.4646 473 59.6013 473 65.5614C473 71.6 471.841 76.7759 469.524 81.0892C467.278 85.4024 464.223 88.6962 460.361 90.9704C456.57 93.2447 452.322 94.3818 447.618 94.3818C442.913 94.3818 438.63 93.2447 434.769 90.9704C430.907 88.6962 427.817 85.4024 425.5 81.0892C423.254 76.7759 422.13 71.6 422.13 65.5614C422.13 59.6013 423.254 54.4646 425.5 50.1514C427.817 45.8381 430.907 42.5444 434.769 40.2701C438.63 37.9958 442.913 36.8587 447.618 36.8587ZM448.144 90.2646C451.163 90.2646 453.516 89.1667 455.201 86.9709C456.956 84.775 458.22 81.8734 458.992 78.2659C459.765 74.6585 460.151 70.7373 460.151 66.5025C460.151 61.1698 459.554 56.6212 458.36 52.857C457.167 49.0142 455.552 46.0734 453.516 44.0344C451.55 41.9954 449.408 40.9759 447.091 40.9759C444.142 40.9759 441.755 42.0738 439.929 44.2697C438.174 46.3871 436.91 49.2495 436.138 52.857C435.365 56.4644 434.979 60.4248 434.979 64.738C434.979 69.9923 435.576 74.5409 436.77 78.3836C438.034 82.2263 439.648 85.1671 441.614 87.2061C443.58 89.2451 445.757 90.2646 448.144 90.2646Z" fill="white" fill-opacity="0.57"/>
<path d="M207.923 176.032C196.328 176.657 187.997 173.415 182.928 166.307C176.818 171.619 172.34 174.274 169.493 174.274C167.966 174.274 166.82 173.415 166.056 171.697C165.362 170.057 165.015 168.26 165.015 166.307C165.015 162.558 166.299 157.169 168.868 150.139C171.923 142.172 174.735 138.188 177.304 138.188C178.623 138.188 179.63 140.531 180.324 145.218C181.505 152.248 182.581 157.09 183.553 159.746C185.844 157.012 188.691 153.302 192.093 148.616C195.565 143.929 199.557 138.266 204.07 131.627C215.318 114.99 222.782 105.89 226.461 104.328C227.711 103.781 228.961 103.508 230.211 103.508C231.599 103.508 232.71 103.859 233.543 104.562C234.446 105.187 234.897 105.929 234.897 106.788C234.897 108.116 233.891 108.897 231.877 109.131C230.419 109.991 228.614 111.475 226.461 113.584C224.378 115.693 222.157 118.114 219.796 120.848C217.505 123.503 215.352 126.159 213.339 128.815C211.325 131.393 209.694 133.619 208.444 135.493C201.015 147.131 193.586 156.426 186.157 163.378L185.532 163.964C187.754 167.635 190.427 170.174 193.551 171.58C196.675 172.986 200.147 173.689 203.966 173.689C210.284 173.689 216.29 172.595 221.983 170.408C227.746 168.299 232.919 165.136 237.501 160.918C242.153 156.622 245.972 151.388 248.957 145.218C252.22 138.5 253.852 132.095 253.852 126.003C253.852 121.863 253.054 117.958 251.457 114.287C249.86 110.537 247.707 107.335 245 104.679C242.361 102.023 239.41 100.305 236.147 99.524C232.328 98.5867 228.336 98.118 224.17 98.118C213.478 98.118 203.619 100.891 194.592 106.437C185.08 112.295 180.324 118.856 180.324 126.12C180.324 128.073 180.845 129.752 181.887 131.158C182.72 132.252 183.31 132.877 183.657 133.033H183.032C181.088 132.642 179.422 131.549 178.033 129.752C176.645 127.956 175.95 125.964 175.95 123.777C175.95 119.715 177.061 116.005 179.283 112.646C181.574 109.21 184.872 106.085 189.177 103.273C197.786 97.7275 207.958 94.9546 219.692 94.9546C222.33 94.9546 224.969 95.1108 227.607 95.4233C230.245 95.7357 232.849 96.2044 235.418 96.8292C239.931 97.9228 244.027 99.9927 247.707 103.039C251.387 106.085 254.338 109.795 256.56 114.169C258.782 118.544 259.893 123.269 259.893 128.346C259.893 134.204 258.365 140.258 255.31 146.507C252.255 152.833 248.298 158.145 243.437 162.441C238.647 166.659 233.231 169.861 227.19 172.048C221.15 174.313 214.728 175.641 207.923 176.032ZM170.014 172.165C172.999 170.681 176.61 167.596 180.845 162.91C178.832 159.16 177.512 155.997 176.888 153.419C176.471 151.701 176.159 149.084 175.95 145.569C171.159 153.302 168.764 160.059 168.764 165.839C168.764 168.26 169.181 170.369 170.014 172.165ZM266.339 169.822C264.673 169.822 263.007 169.158 261.34 167.83C259.674 166.503 258.737 164.94 258.528 163.144C257.834 157.129 261.202 149.982 268.631 141.703C275.99 133.423 282.621 129.284 288.523 129.284C290.12 129.284 291.369 129.713 292.272 130.572C292.758 131.119 293.105 131.861 293.314 132.798C293.591 133.736 293.8 134.204 293.938 134.204C294.216 134.204 294.459 134.165 294.667 134.087C294.876 133.931 295.119 133.853 295.396 133.853C296.23 133.853 296.959 134.204 297.584 134.907C298.208 135.61 298.556 136.235 298.625 136.782C298.694 136.938 296.473 140.805 291.96 148.381C287.447 155.802 285.398 160.84 285.815 163.495C286.162 165.292 286.926 166.19 288.106 166.19C291.717 166.19 298.313 159.473 307.894 146.038C308.102 145.726 308.311 145.569 308.519 145.569C308.866 145.569 309.04 145.843 309.04 146.389C309.04 147.014 308.727 147.795 308.102 148.733C299.285 162.089 292.515 168.768 287.794 168.768C287.169 168.768 286.579 168.651 286.023 168.416C282.968 167.088 281.441 164.511 281.441 160.683C281.441 159.356 281.58 158.028 281.857 156.7L275.4 163.73C273.456 165.917 271.686 167.479 270.089 168.416C268.561 169.354 267.312 169.822 266.339 169.822ZM265.402 167.245C269.429 167.245 274.914 162.285 281.857 152.365L292.897 135.259C292.341 134.165 291.439 133.619 290.189 133.619C285.954 133.619 280.226 137.446 273.005 145.101C265.506 152.912 262.139 159.356 262.903 164.433C263.25 166.307 264.083 167.245 265.402 167.245ZM328.839 169.471C326.965 169.471 325.645 168.885 324.882 167.713C324.118 166.463 323.736 164.94 323.736 163.144C323.736 158.614 325.125 153.771 327.902 148.616L334.567 136.431C329.846 140.336 325.159 145.218 320.507 151.076C319.258 152.638 317.834 154.474 316.237 156.583C314.71 158.692 313.009 161.113 311.134 163.847C308.635 167.518 307.142 169.354 306.656 169.354C305.684 169.354 304.885 168.885 304.26 167.948C303.636 166.932 303.323 166.034 303.323 165.253C303.323 164.628 303.497 163.495 303.844 161.855C304.191 160.137 304.608 158.653 305.094 157.403C305.58 156.075 306.066 154.786 306.552 153.536C307.107 152.209 307.628 150.92 308.114 149.67L301.865 157.051C301.726 157.208 301.31 157.676 300.615 158.457C299.921 159.238 299.366 159.629 298.949 159.629C298.602 159.629 298.428 159.356 298.428 158.809C298.428 158.653 298.498 158.457 298.637 158.223C298.706 157.911 298.914 157.559 299.261 157.169C300.303 155.997 301.379 154.747 302.49 153.419C303.601 152.091 304.747 150.568 305.927 148.85C306.552 147.991 307.489 146.702 308.739 144.983C309.989 143.187 311.342 141.273 312.801 139.242C314.328 137.212 315.751 135.337 317.071 133.619C317.418 133.072 317.8 132.72 318.216 132.564C318.633 132.33 318.91 132.213 319.049 132.213C320.924 132.213 321.861 133.033 321.861 134.673C321.861 135.142 321.757 135.61 321.549 136.079C315.3 145.765 311.551 153.146 310.301 158.223C318.355 149.162 324.812 142.367 329.672 137.837C334.602 133.228 338.108 130.924 340.191 130.924C341.302 130.924 342.135 131.119 342.691 131.51C343.316 131.9 343.628 132.642 343.628 133.736C343.628 134.126 343.593 134.439 343.524 134.673C343.316 135.22 341.892 137.407 339.254 141.234C337.657 143.421 336.234 145.413 334.984 147.21C333.803 149.006 332.831 150.568 332.068 151.896C330.818 154.083 329.881 156.153 329.256 158.106C328.631 159.98 328.318 161.582 328.318 162.91C328.318 163.456 328.388 164.12 328.527 164.901C328.666 165.682 329.082 166.073 329.776 166.073C331.373 166.073 333.873 164.511 337.275 161.386C338.872 159.824 340.365 158.262 341.753 156.7C343.142 155.06 344.461 153.458 345.711 151.896C345.989 151.584 346.44 150.998 347.065 150.139C347.69 149.201 348.072 148.733 348.21 148.733C348.488 148.733 348.627 149.045 348.627 149.67C348.627 149.982 348.453 150.529 348.106 151.31C347.829 152.013 347.516 152.56 347.169 152.951C346.405 153.966 345.26 155.372 343.732 157.169C342.274 158.965 340.608 160.801 338.733 162.675C336.928 164.55 335.157 166.151 333.422 167.479C331.686 168.807 330.158 169.471 328.839 169.471ZM367.303 128.932C366.122 128.932 365.081 128.502 364.178 127.643C363.345 126.784 362.928 125.808 362.928 124.714C362.928 122.527 364.248 121.434 366.886 121.434C367.858 121.434 368.83 121.824 369.802 122.605C370.774 123.308 371.26 124.206 371.26 125.3C371.26 126.237 370.809 127.097 369.906 127.878C369.004 128.581 368.136 128.932 367.303 128.932ZM348.035 170.525C346.508 170.525 345.258 169.978 344.286 168.885C343.245 167.713 342.724 165.682 342.724 162.792C342.724 161.152 343.071 159.277 343.765 157.169C344.39 154.981 345.189 152.794 346.161 150.607C347.202 148.42 348.209 146.468 349.181 144.749C353.069 137.641 356.263 134.048 358.763 133.97C359.387 133.97 360.151 134.283 361.054 134.907C361.956 135.454 362.408 136.079 362.408 136.782C362.408 136.782 359.769 140.609 354.493 148.264C349.285 155.841 346.682 161.23 346.682 164.433C346.682 166.932 347.549 168.182 349.285 168.182C350.396 168.182 351.819 167.674 353.555 166.659C355.36 165.565 357.235 164.198 359.179 162.558C361.123 160.918 362.963 159.16 364.699 157.286C366.504 155.411 367.962 153.693 369.073 152.13C369.767 151.115 370.358 150.412 370.844 150.022C371.399 149.631 371.746 149.436 371.885 149.436C372.163 149.436 372.302 149.67 372.302 150.139C372.302 150.529 371.885 151.31 371.052 152.482C370.288 153.654 369.212 155.021 367.823 156.583C366.157 158.457 364.317 160.488 362.304 162.675C360.29 164.862 358.103 166.737 355.742 168.299C353.382 169.783 350.813 170.525 348.035 170.525ZM375.695 169.471C373.682 169.471 371.807 168.924 370.071 167.83C368.335 166.659 367.467 164.745 367.467 162.089C367.467 158.418 368.613 154.044 370.904 148.967C373.265 143.89 375.938 138.618 378.924 133.15C387.047 118.309 392.81 110.889 396.212 110.889C396.906 110.889 397.601 111.201 398.295 111.826C399.059 112.373 399.475 112.998 399.545 113.701L392.254 124.714C389.408 129.01 386.839 132.994 384.548 136.665C382.256 140.258 380.278 143.499 378.611 146.389C377.778 147.874 376.841 149.553 375.799 151.427C374.758 153.302 373.82 155.255 372.987 157.286C372.224 159.238 371.842 161.23 371.842 163.261C371.842 164.198 372.085 165.058 372.571 165.839C373.057 166.542 373.925 166.893 375.174 166.893C377.396 166.893 380.312 165.565 383.923 162.91C387.533 160.176 391.109 156.426 394.65 151.662C394.997 151.193 395.379 150.764 395.795 150.373C396.212 149.982 396.559 149.787 396.837 149.787C397.184 149.787 397.358 150.022 397.358 150.49C397.358 150.725 397.115 151.193 396.629 151.896C396.212 152.521 395.865 153.029 395.587 153.419L393.088 156.583C391.699 158.301 390.033 160.176 388.089 162.207C386.214 164.237 384.2 165.956 382.048 167.362C379.965 168.768 377.847 169.471 375.695 169.471ZM401.02 170.759C398.798 170.759 396.785 169.978 394.98 168.416C393.174 166.776 392.272 164.628 392.272 161.972C392.272 156.426 395.292 150.1 401.333 142.992C407.512 135.806 413.032 132.213 417.892 132.213C419.558 132.213 420.877 132.72 421.849 133.736C422.821 134.673 423.308 135.845 423.308 137.251C423.308 139.203 422.891 141 422.058 142.64C421.086 144.671 419.697 145.686 417.892 145.686C416.087 145.686 415.184 145.062 415.184 143.812C415.184 142.953 415.635 141.664 416.538 139.945C417.51 138.149 417.996 137.212 417.996 137.134C417.996 136.977 417.892 136.899 417.684 136.899C415.739 137.134 413.032 138.735 409.56 141.703C408.033 143.031 406.679 144.281 405.498 145.452C404.388 146.624 403.485 147.756 402.791 148.85L398.729 155.528C398.312 156.231 397.861 157.442 397.375 159.16C396.958 160.879 396.75 162.167 396.75 163.027C396.75 164.589 397.201 165.878 398.104 166.893C399.076 167.909 400.291 168.416 401.749 168.416C405.221 168.416 409.803 165.878 415.497 160.801C420.079 156.739 423.759 152.638 426.536 148.498C426.883 148.03 427.3 147.795 427.786 147.795C428.272 147.795 428.515 147.952 428.515 148.264C428.515 148.498 428.341 148.889 427.994 149.436C424.175 155.138 419.697 160.059 414.559 164.198C409.074 168.572 404.561 170.759 401.02 170.759ZM445.615 128.932C444.435 128.932 443.393 128.502 442.491 127.643C441.658 126.784 441.241 125.808 441.241 124.714C441.241 122.527 442.56 121.434 445.199 121.434C446.171 121.434 447.143 121.824 448.115 122.605C449.087 123.308 449.573 124.206 449.573 125.3C449.573 126.237 449.121 127.097 448.219 127.878C447.316 128.581 446.448 128.932 445.615 128.932ZM426.348 170.525C424.821 170.525 423.571 169.978 422.599 168.885C421.557 167.713 421.037 165.682 421.037 162.792C421.037 161.152 421.384 159.277 422.078 157.169C422.703 154.981 423.501 152.794 424.473 150.607C425.515 148.42 426.522 146.468 427.494 144.749C431.382 137.641 434.576 134.048 437.075 133.97C437.7 133.97 438.464 134.283 439.366 134.907C440.269 135.454 440.72 136.079 440.72 136.782C440.72 136.782 438.082 140.609 432.805 148.264C427.598 155.841 424.994 161.23 424.994 164.433C424.994 166.932 425.862 168.182 427.598 168.182C428.709 168.182 430.132 167.674 431.868 166.659C433.673 165.565 435.548 164.198 437.492 162.558C439.436 160.918 441.276 159.16 443.012 157.286C444.817 155.411 446.275 153.693 447.386 152.13C448.08 151.115 448.67 150.412 449.156 150.022C449.712 149.631 450.059 149.436 450.198 149.436C450.475 149.436 450.614 149.67 450.614 150.139C450.614 150.529 450.198 151.31 449.364 152.482C448.601 153.654 447.525 155.021 446.136 156.583C444.47 158.457 442.63 160.488 440.616 162.675C438.603 164.862 436.416 166.737 434.055 168.299C431.694 169.783 429.125 170.525 426.348 170.525Z" fill="#A5DADA"/>
<path d="M31.072 145.88H32.752L30.688 155H6.4V153.32H10.24L10.48 153.08V124.76L10.24 124.52H6.4V122.84H30.208L31.936 130.52L30.352 131C29.904 129.304 29.312 127.992 28.576 127.064C27.84 126.136 26.864 125.48 25.648 125.096C24.464 124.712 22.944 124.52 21.088 124.52H15.04L14.8 124.76V138.008L12.64 137.48H19.744C21.12 137.48 22.144 137.128 22.816 136.424C23.52 135.72 23.936 134.312 24.064 132.2H25.744V144.44H24.064C23.936 142.328 23.52 140.92 22.816 140.216C22.144 139.512 21.12 139.16 19.744 139.16H12.64L14.8 138.536V153.08L15.04 153.32H21.568C24.352 153.32 26.464 152.712 27.904 151.496C29.344 150.28 30.4 148.408 31.072 145.88ZM58.4163 153.08L58.6562 153.32H62.2563V155C61.4243 155 60.5923 155 59.7603 155C58.9603 155.032 58.1443 155.064 57.3123 155.096C56.4803 155.128 55.6483 155.176 54.8163 155.24L54.5763 155V150.92C53.9683 152.04 53.0083 153.08 51.6963 154.04C50.4163 155 48.8323 155.48 46.9443 155.48C45.0243 155.48 43.3123 155.016 41.8083 154.088C40.3363 153.128 39.1683 151.8 38.3043 150.104C37.4723 148.376 37.0563 146.36 37.0563 144.056C37.0563 141.752 37.4723 139.736 38.3043 138.008C39.1683 136.248 40.3363 134.888 41.8083 133.928C43.3123 132.936 45.0243 132.44 46.9443 132.44C48.9603 132.44 50.5763 132.888 51.7923 133.784C53.0403 134.68 53.9683 135.752 54.5763 137V121.88L54.3363 121.64H50.7363V119.96C51.5683 119.96 52.4003 119.96 53.2323 119.96C54.0643 119.928 54.8803 119.896 55.6803 119.864C56.5123 119.832 57.3443 119.784 58.1763 119.72L58.4163 119.96V153.08ZM54.5763 147.56V140.36C53.6803 138.312 52.6243 136.84 51.4083 135.944C50.1923 135.048 48.9283 134.6 47.6163 134.6C45.7923 134.6 44.2883 135.304 43.1043 136.712C41.9523 138.088 41.3763 140.344 41.3763 143.48C41.3763 146.616 41.9523 149.048 43.1043 150.776C44.2883 152.472 45.7923 153.32 47.6163 153.32C48.9283 153.32 50.1923 152.872 51.4083 151.976C52.6243 151.08 53.6803 149.608 54.5763 147.56ZM87.1405 153.08L87.3805 153.32H90.9805V155C90.1485 155 89.3325 155 88.5325 155C87.7645 155.032 86.9805 155.064 86.1805 155.096C85.4125 155.128 84.6125 155.176 83.7805 155.24L83.5405 155V150.44H83.3005C82.4045 151.944 81.2845 153.16 79.9405 154.088C78.5965 155.016 76.8845 155.48 74.8045 155.48C73.2365 155.48 71.9885 155.208 71.0605 154.664C70.1325 154.088 69.4605 153.336 69.0445 152.408C68.6285 151.448 68.4205 150.392 68.4205 149.24V134.84L68.1805 134.6H64.5805V132.92C65.4125 132.92 66.2445 132.92 67.0765 132.92C67.9085 132.888 68.7245 132.856 69.5245 132.824C70.3565 132.792 71.1885 132.744 72.0205 132.68L72.2605 132.92V148.28C72.2605 149.848 72.5165 151.08 73.0285 151.976C73.5725 152.872 74.5165 153.32 75.8605 153.32C77.2045 153.32 78.4525 152.872 79.6045 151.976C80.7885 151.048 82.0205 149.496 83.3005 147.32V134.84L83.0605 134.6H79.4605V132.92C80.2925 132.92 81.1245 132.92 81.9565 132.92C82.7885 132.888 83.6045 132.856 84.4045 132.824C85.2365 132.792 86.0685 132.744 86.9005 132.68L87.1405 132.92V153.08ZM105.892 155.48C103.876 155.48 102.036 155.016 100.372 154.088C98.708 153.16 97.38 151.848 96.388 150.152C95.396 148.456 94.9 146.456 94.9 144.152C94.9 141.688 95.428 139.592 96.484 137.864C97.54 136.104 98.932 134.76 100.66 133.832C102.42 132.904 104.324 132.44 106.372 132.44C107.876 132.44 109.268 132.696 110.548 133.208C111.828 133.72 112.852 134.424 113.62 135.32C114.42 136.216 114.82 137.256 114.82 138.44C114.82 139.24 114.58 139.88 114.1 140.36C113.652 140.84 113.092 141.08 112.42 141.08C111.812 141.08 111.252 140.856 110.74 140.408C110.26 139.96 110.02 139.384 110.02 138.68C110.02 138.168 110.164 137.704 110.452 137.288C110.74 136.84 111.252 136.52 111.988 136.328C111.316 135.592 110.5 135.048 109.54 134.696C108.612 134.312 107.54 134.12 106.324 134.12C104.596 134.12 103.204 134.552 102.148 135.416C101.092 136.248 100.308 137.384 99.796 138.824C99.316 140.264 99.076 141.864 99.076 143.624C99.076 145.704 99.412 147.496 100.084 149C100.756 150.472 101.652 151.608 102.772 152.408C103.924 153.176 105.188 153.56 106.564 153.56C107.844 153.56 109.092 153.192 110.308 152.456C111.524 151.688 112.676 150.584 113.764 149.144L115.06 150.248C114.26 151.336 113.412 152.28 112.516 153.08C111.62 153.848 110.628 154.44 109.54 154.856C108.452 155.272 107.236 155.48 105.892 155.48ZM137.332 155.48C136.244 155.48 135.316 155.24 134.548 154.76C133.78 154.28 133.284 153.56 133.06 152.6V140.6C133.06 138.648 132.692 137.128 131.956 136.04C131.252 134.92 129.988 134.36 128.164 134.36C127.172 134.36 126.244 134.472 125.38 134.696C124.548 134.888 123.764 135.256 123.028 135.8C123.54 136.088 123.892 136.44 124.084 136.856C124.308 137.272 124.42 137.72 124.42 138.2C124.42 138.904 124.18 139.48 123.7 139.928C123.22 140.376 122.66 140.6 122.02 140.6C121.348 140.6 120.772 140.36 120.292 139.88C119.844 139.4 119.62 138.744 119.62 137.912C119.62 137.08 119.876 136.328 120.388 135.656C120.9 134.984 121.588 134.408 122.452 133.928C123.316 133.448 124.276 133.08 125.332 132.824C126.42 132.568 127.508 132.44 128.596 132.44C130.132 132.44 131.524 132.664 132.772 133.112C134.02 133.528 135.012 134.28 135.748 135.368C136.516 136.424 136.9 137.928 136.9 139.88V151.304C136.9 151.752 136.996 152.2 137.188 152.648C137.412 153.096 137.828 153.32 138.436 153.32C138.884 153.32 139.284 153.16 139.636 152.84C139.988 152.52 140.324 152.152 140.644 151.736L141.94 152.84C141.556 153.384 141.14 153.864 140.692 154.28C140.244 154.664 139.748 154.952 139.204 155.144C138.66 155.368 138.036 155.48 137.332 155.48ZM126.1 155.48C123.572 155.48 121.62 154.856 120.244 153.608C118.868 152.36 118.18 150.872 118.18 149.144C118.18 147.384 118.868 145.896 120.244 144.68C121.62 143.432 123.572 142.808 126.1 142.808C127.7 142.808 129.076 143.08 130.228 143.624C131.38 144.168 132.324 144.856 133.06 145.688V147.848C132.036 146.76 130.996 146.008 129.94 145.592C128.884 145.176 127.892 144.968 126.964 144.968C125.46 144.968 124.26 145.352 123.364 146.12C122.468 146.856 122.02 147.864 122.02 149.144C122.02 150.392 122.468 151.4 123.364 152.168C124.26 152.936 125.46 153.32 126.964 153.32C127.892 153.32 128.884 153.112 129.94 152.696C130.996 152.28 132.036 151.528 133.06 150.44V152.6C132.324 153.432 131.38 154.12 130.228 154.664C129.076 155.208 127.7 155.48 126.1 155.48ZM156.263 151.304L157.559 152.408C157.047 153.144 156.375 153.848 155.543 154.52C154.743 155.16 153.639 155.48 152.231 155.48C151.335 155.48 150.487 155.304 149.687 154.952C148.887 154.6 148.231 154.024 147.719 153.224C147.239 152.392 146.999 151.304 146.999 149.96V134.84L146.759 134.6H142.679V132.92C144.599 132.792 146.119 131.928 147.239 130.328C148.391 128.696 149.031 126.2 149.159 122.84H150.839V132.92H157.079V134.6H151.079L150.839 134.84V150.248C150.839 151.304 151.063 152.088 151.511 152.6C151.959 153.08 152.535 153.32 153.239 153.32C153.879 153.32 154.423 153.144 154.871 152.792C155.351 152.408 155.815 151.912 156.263 151.304ZM160.42 155V153.32H164.02L164.26 153.08V134.84L164.02 134.6H160.42V132.92C161.252 132.92 162.068 132.92 162.868 132.92C163.7 132.888 164.532 132.856 165.364 132.824C166.196 132.792 167.028 132.744 167.86 132.68L168.1 132.92V153.08L168.34 153.32H171.94V155H160.42ZM165.94 127.64C165.236 127.64 164.612 127.384 164.068 126.872C163.556 126.328 163.3 125.704 163.3 125C163.3 124.264 163.556 123.64 164.068 123.128C164.612 122.616 165.236 122.36 165.94 122.36C166.676 122.36 167.3 122.616 167.812 123.128C168.324 123.64 168.58 124.264 168.58 125C168.58 125.704 168.324 126.328 167.812 126.872C167.3 127.384 166.676 127.64 165.94 127.64ZM187.315 132.44C189.299 132.44 191.123 132.904 192.787 133.832C194.451 134.76 195.795 136.088 196.819 137.816C197.843 139.544 198.355 141.592 198.355 143.96C198.355 146.328 197.843 148.376 196.819 150.104C195.795 151.832 194.451 153.16 192.787 154.088C191.123 155.016 189.299 155.48 187.315 155.48C185.363 155.48 183.539 155.016 181.843 154.088C180.179 153.16 178.835 151.832 177.811 150.104C176.787 148.376 176.275 146.328 176.275 143.96C176.275 141.592 176.787 139.544 177.811 137.816C178.835 136.088 180.179 134.76 181.843 133.832C183.539 132.904 185.363 132.44 187.315 132.44ZM187.555 153.8C189.155 153.8 190.419 153.384 191.347 152.552C192.307 151.688 192.995 150.52 193.411 149.048C193.827 147.576 194.035 145.88 194.035 143.96C194.035 142.072 193.731 140.392 193.123 138.92C192.515 137.416 191.683 136.248 190.627 135.416C189.603 134.552 188.419 134.12 187.075 134.12C185.507 134.12 184.243 134.536 183.283 135.368C182.323 136.2 181.635 137.368 181.219 138.872C180.803 140.344 180.595 142.04 180.595 143.96C180.595 145.848 180.899 147.544 181.507 149.048C182.115 150.52 182.931 151.688 183.955 152.552C185.011 153.384 186.211 153.8 187.555 153.8ZM225.694 153.08L225.934 153.32H229.534V155H218.014V153.32H221.614L221.854 153.08V139.64C221.854 138.072 221.582 136.84 221.038 135.944C220.494 135.048 219.486 134.6 218.014 134.6C216.67 134.6 215.374 135.064 214.126 135.992C212.91 136.888 211.646 138.424 210.334 140.6V153.08L210.574 153.32H214.174V155H202.654V153.32H206.254L206.494 153.08V134.84L206.254 134.6H202.654V132.92C203.486 132.92 204.286 132.92 205.054 132.92C205.854 132.888 206.638 132.856 207.406 132.824C208.206 132.792 209.022 132.744 209.854 132.68L210.094 132.92V137.48H210.334C211.262 135.976 212.43 134.76 213.838 133.832C215.246 132.904 216.99 132.44 219.07 132.44C220.734 132.44 222.046 132.728 223.006 133.304C223.966 133.848 224.654 134.6 225.07 135.56C225.486 136.488 225.694 137.528 225.694 138.68V153.08Z" fill="#A69020" fill-opacity="0.57"/>
</svg>
